<?xml version="1.0" standalone="no"?>
<!DOCTYPE svg PUBLIC "-//W3C//DTD SVG 20010904//EN"
 "http://www.w3.org/TR/2001/REC-SVG-20010904/DTD/svg10.dtd">
<svg version="1.0" xmlns="http://www.w3.org/2000/svg"
 width="260.000000pt" height="260.000000pt" viewBox="0 0 260.000000 260.000000"
 preserveAspectRatio="xMidYMid meet">
<metadata>
Created by potrace 1.14, written by Peter Selinger 2001-2017
</metadata>
<g transform="translate(0.000000,260.000000) scale(0.100000,-0.100000)"
fill="#000000" stroke="none">
<path d="M557 2386 c5 -16 3 -18 -14 -14 -12 3 -20 0 -20 -7 0 -7 7 -11 16 -9
9 2 4 -2 -12 -9 -15 -7 -24 -17 -20 -22 5 -5 0 -3 -9 4 -10 7 -23 11 -30 8 -8
-3 -5 -6 7 -6 14 -1 16 -4 8 -12 -6 -6 -9 -19 -6 -28 4 -13 3 -14 -5 -1 -6 8
-8 18 -6 22 3 4 -2 5 -11 2 -13 -5 -13 -9 -3 -22 8 -10 8 -13 2 -9 -7 4 -15 0
-18 -9 -3 -8 -2 -12 3 -9 5 3 13 0 17 -6 4 -7 3 -9 -3 -6 -6 4 -16 0 -22 -7
-10 -11 -8 -17 6 -25 14 -8 15 -10 3 -11 -12 0 -15 -9 -12 -40 3 -26 0 -40 -8
-40 -6 0 -8 -5 -5 -11 5 -6 12 -4 22 8 13 17 14 17 5 -2 -6 -11 -9 -55 -8 -97
1 -42 -1 -75 -4 -73 -3 2 -4 -12 -2 -31 3 -21 0 -34 -7 -34 -7 0 -9 -5 -6 -11
5 -6 12 -4 22 8 13 17 14 17 5 -2 -5 -11 -9 -49 -10 -85 -1 -36 -6 -66 -12
-68 -6 -2 -7 -8 -4 -13 3 -6 12 -2 21 8 13 16 13 16 3 -5 -7 -13 -9 -26 -7
-29 3 -2 1 -18 -3 -34 -5 -18 -5 -27 1 -24 5 4 9 1 9 -4 0 -6 -5 -11 -10 -11
-7 0 -7 -6 0 -19 8 -16 6 -20 -8 -24 -15 -4 -15 -5 2 -6 19 -1 19 -1 0 -23
-10 -12 -14 -18 -8 -15 7 4 14 -2 17 -13 3 -12 -1 -20 -12 -23 -13 -4 -13 -5
-1 -6 12 -1 15 -13 15 -50 0 -27 -2 -48 -5 -46 -3 2 -4 -12 -2 -31 3 -21 0
-34 -7 -34 -7 0 -9 -5 -6 -11 5 -6 12 -4 22 8 13 17 14 17 4 -2 -5 -12 -8 -58
-7 -103 2 -45 -1 -82 -6 -82 -5 0 -4 -9 2 -19 8 -16 6 -20 -8 -24 -15 -4 -15
-5 2 -6 19 -1 19 -1 0 -23 -10 -12 -14 -18 -8 -15 7 4 14 -2 17 -13 3 -12 -1
-20 -12 -23 -14 -4 -14 -5 2 -6 9 0 17 -6 17 -12 0 -5 -4 -8 -8 -5 -4 2 -6
-11 -4 -30 3 -21 0 -34 -7 -34 -7 0 -9 -5 -6 -11 5 -6 12 -4 22 8 13 17 14 17
5 -2 -5 -11 -9 -49 -10 -85 -1 -36 -6 -66 -12 -68 -6 -2 -7 -8 -4 -13 3 -6 12
-2 21 8 13 17 14 17 5 -2 -6 -11 -9 -55 -8 -97 1 -42 -1 -75 -4 -73 -3 2 -4
-12 -2 -31 3 -21 0 -34 -7 -34 -7 0 -9 -5 -6 -11 5 -6 12 -4 22 8 8 10 11 12
7 4 -7 -13 -11 -37 -18 -108 -2 -19 2 -37 10 -44 8 -6 14 -17 14 -23 0 -6 -4
-4 -10 4 -5 8 -11 12 -15 9 -3 -3 6 -18 19 -32 13 -14 27 -23 30 -19 4 3 4 -2
0 -12 -6 -15 -4 -17 6 -11 8 5 11 4 6 -3 -4 -6 -13 -9 -21 -5 -8 3 -15 1 -15
-4 0 -5 12 -10 26 -11 15 -1 32 -6 39 -12 6 -5 15 -7 19 -3 4 4 2 -6 -4 -22
-11 -28 -11 -29 8 -12 16 15 22 16 34 5 19 -18 38 -21 53 -8 10 8 15 8 21 -1
5 -8 3 -9 -6 -4 -9 6 -11 4 -5 -5 6 -10 10 -10 20 3 10 14 12 14 24 -1 11 -16
12 -16 7 0 -5 15 -3 16 14 5 16 -9 24 -9 41 1 12 8 18 9 15 4 -3 -5 5 -9 19
-9 16 0 22 4 18 11 -5 7 -2 7 8 -1 12 -10 125 -13 154 -3 6 2 18 0 29 -5 11
-5 26 -3 37 3 10 7 22 12 26 12 5 0 2 -4 -5 -9 -10 -6 -7 -10 12 -13 14 -3 25
-2 24 1 -2 19 4 24 12 11 7 -11 12 -12 21 -3 9 9 16 9 30 0 15 -9 24 -9 40 1
12 8 18 9 15 4 -3 -6 1 -13 10 -16 8 -3 12 -2 9 3 -3 5 -1 12 5 16 5 3 10 1
10 -5 0 -6 4 -9 9 -5 5 3 12 1 16 -5 4 -6 11 -7 17 -4 18 12 167 11 160 -1 -3
-5 6 -2 20 7 19 13 29 15 34 6 5 -7 3 -8 -6 -3 -9 5 -11 4 -6 -4 6 -8 12 -9
20 -2 9 7 17 7 26 -2 10 -10 12 -9 7 5 -5 15 -4 16 13 5 16 -9 24 -9 40 0 14
9 21 10 26 1 5 -7 3 -8 -6 -3 -9 5 -11 4 -6 -4 6 -8 12 -9 20 -2 9 7 17 7 26
-2 10 -10 12 -9 7 5 -5 15 -4 16 13 5 16 -9 24 -9 41 1 12 8 18 9 15 4 -3 -5
5 -9 19 -9 16 0 22 4 18 11 -5 8 -3 8 8 0 16 -13 126 -16 149 -4 9 5 21 1 34
-13 16 -19 18 -19 12 -3 -4 13 -2 17 8 13 7 -3 19 0 26 6 10 9 11 9 6 0 -4 -8
1 -11 14 -10 11 1 20 5 20 10 0 5 12 7 26 4 18 -3 22 -1 15 6 -7 7 -5 14 7 23
21 17 36 18 26 2 -5 -7 -3 -8 5 -4 7 5 10 14 8 20 -3 7 -1 19 5 27 8 11 9 11
4 -3 -3 -10 -1 -20 4 -23 6 -4 10 1 10 9 0 39 17 69 33 59 7 -4 7 0 -2 10 -7
9 -10 17 -5 17 5 0 9 18 10 40 0 25 -3 36 -8 28 -11 -18 -10 -5 2 26 7 19 6
26 -3 26 -8 0 -7 4 3 10 11 7 11 10 2 10 -7 0 -10 5 -7 10 4 6 12 7 18 3 7 -4
7 0 -1 10 -8 9 -10 22 -6 28 4 8 3 9 -4 5 -7 -4 -12 -2 -12 3 0 6 4 11 10 11
5 0 7 7 4 15 -4 8 -11 12 -18 8 -6 -3 0 7 14 23 14 15 18 23 10 17 -13 -10
-15 -8 -14 15 1 16 7 26 14 24 11 -3 11 0 1 12 -7 8 -9 21 -5 27 4 8 3 9 -4 5
-7 -4 -12 -2 -12 3 0 6 4 11 10 11 5 0 7 7 4 15 -4 8 -11 12 -18 8 -6 -3 0 7
14 23 14 15 18 23 10 17 -12 -9 -15 -6 -16 18 -1 15 2 27 5 25 3 -2 6 7 6 20
0 13 -4 24 -10 24 -5 0 -3 5 5 10 9 6 10 10 3 10 -12 0 -10 30 3 52 4 6 3 8
-3 5 -6 -4 -13 0 -16 8 -4 10 -1 12 11 8 15 -6 15 -5 3 10 -7 9 -9 17 -4 17
11 0 9 33 -3 64 -4 11 -4 17 2 14 5 -4 9 5 9 18 0 13 -4 24 -10 24 -5 0 -3 5
5 10 11 7 11 10 2 10 -7 0 -10 5 -7 10 4 6 12 7 18 3 7 -4 7 0 -1 10 -8 9 -10
22 -6 28 4 8 3 9 -4 5 -7 -4 -12 -2 -12 3 0 6 4 11 10 11 5 0 7 7 4 15 -4 8
-11 12 -18 8 -6 -3 0 7 14 23 14 15 18 23 10 17 -13 -10 -15 -8 -14 15 1 16 7
26 14 24 11 -3 11 0 1 12 -7 8 -9 21 -5 27 4 8 3 9 -4 5 -7 -4 -12 -2 -12 3 0
6 4 11 10 11 5 0 7 7 4 15 -4 8 -11 12 -18 8 -6 -3 0 7 14 23 14 15 18 23 10
17 -12 -9 -15 -6 -16 18 -1 15 2 27 5 25 3 -2 6 7 6 20 0 13 -4 24 -10 24 -5
0 -3 5 5 10 9 6 10 10 3 10 -12 0 -10 30 3 52 4 6 3 8 -3 5 -6 -4 -13 0 -16 8
-4 8 -1 12 6 9 8 -3 12 12 12 50 0 30 -3 50 -7 43 -11 -17 -10 -3 2 27 6 18 6
26 -1 26 -6 0 -7 5 -4 10 3 6 1 10 -6 10 -7 0 -10 3 -6 6 3 4 1 12 -6 20 -7 7
-27 31 -46 53 -19 23 -41 41 -48 41 -7 0 -12 5 -10 12 1 7 -5 13 -13 13 -27 2
-50 17 -43 28 4 6 0 8 -10 4 -9 -3 -19 -2 -21 2 -11 17 34 5 47 -13 11 -15 16
-16 22 -6 5 9 4 11 -3 6 -7 -4 -12 -1 -12 8 0 8 -10 18 -22 22 -33 10 -49 35
-35 54 9 11 7 11 -8 -1 -23 -19 -47 -15 -39 6 9 23 -5 38 -22 24 -9 -7 -14 -8
-13 -3 4 21 -2 44 -11 44 -5 0 -7 -6 -4 -14 7 -18 -12 -30 -22 -15 -4 8 -3 9
4 5 19 -12 14 8 -8 32 -11 12 -20 25 -20 29 1 4 9 -2 19 -14 10 -12 21 -19 25
-16 3 3 -3 13 -14 20 -11 8 -18 20 -14 26 3 7 -3 2 -14 -10 l-19 -22 0 27 c-1
14 -6 28 -12 30 -6 2 -8 9 -5 14 4 7 2 8 -5 4 -9 -6 -9 -11 0 -22 6 -8 9 -17
5 -21 -3 -3 -6 -1 -6 6 0 7 -5 9 -12 5 -6 -4 -8 -3 -4 4 3 6 -1 17 -9 25 -19
20 -20 33 -1 18 10 -8 16 -9 21 -1 4 6 1 9 -7 8 -7 -2 -12 3 -10 10 1 8 -2 11
-7 8 -5 -4 -12 -2 -16 4 -4 6 -11 8 -16 5 -11 -8 -51 19 -42 28 3 4 11 -1 18
-10 7 -10 14 -12 18 -6 4 6 -5 18 -18 27 -14 9 -23 21 -20 26 3 5 -6 7 -19 4
-14 -2 -28 0 -31 6 -4 6 -10 8 -14 6 -11 -7 -10 27 2 42 6 8 6 12 -1 12 -6 0
-13 -6 -15 -12 -4 -10 -8 -10 -15 1 -7 9 -12 10 -16 2 -9 -14 -26 -14 -26 0 0
5 6 7 13 3 6 -4 8 -3 4 1 -10 11 -39 16 -32 5 3 -4 -2 -11 -11 -14 -10 -4 -13
-2 -8 6 5 7 2 9 -8 5 -9 -3 -20 -1 -25 4 -5 5 -20 3 -36 -6 -15 -8 -25 -11
-23 -6 8 13 -57 11 -73 -2 -10 -8 -13 -8 -8 -1 4 7 -2 12 -18 12 -14 0 -22 -4
-19 -9 2 -4 -8 -2 -23 6 -24 12 -29 12 -43 0 -9 -8 -21 -15 -26 -15 -5 0 -3 4
4 9 10 6 7 10 -12 13 -14 3 -23 2 -21 -2 5 -9 -75 -3 -83 5 -3 3 -14 -3 -25
-12 -11 -10 -17 -13 -14 -7 4 7 -3 12 -18 12 -15 0 -22 -5 -18 -12 3 -6 -2 -3
-13 6 -18 15 -23 16 -47 3 -15 -8 -25 -11 -23 -6 8 13 -57 11 -73 -2 -12 -10
-13 -9 -7 2 6 9 5 12 -5 9 -8 -3 -22 -1 -31 4 -11 5 -18 5 -18 -1 0 -5 6 -11
13 -14 6 -3 2 -4 -10 -4 -12 1 -19 5 -16 11 4 5 -1 7 -10 3 -9 -3 -19 -2 -22
4 -4 5 -12 6 -18 2 -7 -4 -22 -6 -35 -4 -13 1 -30 -3 -39 -11 -12 -9 -15 -10
-9 0 4 6 3 12 -1 12 -5 0 -15 -6 -22 -12 -12 -11 -13 -10 -7 6 5 15 4 17 -7 8
-8 -7 -18 -8 -22 -4 -5 4 -5 1 -1 -5 11 -19 -5 -16 -20 5 -13 16 -14 16 -7 -2z
m1103 -81 c7 -9 8 -15 2 -15 -5 0 -12 7 -16 15 -3 8 -4 15 -2 15 2 0 9 -7 16
-15z m64 -63 c3 -5 -1 -9 -9 -9 -8 0 -12 4 -9 9 3 4 7 8 9 8 2 0 6 -4 9 -8z
m-1080 -34 c-4 -7 -2 -8 5 -4 6 4 9 12 6 17 -4 5 -1 9 4 9 6 0 11 -4 11 -10 0
-5 5 -10 11 -10 5 0 8 4 5 8 -6 11 40 9 50 -1 12 -12 26 -8 18 6 -5 7 0 6 11
-3 11 -9 16 -10 11 -2 -4 6 -2 12 3 12 6 0 11 -4 11 -9 0 -6 9 -8 20 -6 11 2
20 -1 20 -7 0 -7 7 -3 16 8 12 15 17 16 21 5 5 -11 7 -11 14 0 7 11 9 9 10 -6
l0 -20 9 20 c5 11 9 14 9 8 1 -7 6 -13 12 -13 5 0 8 4 4 9 -6 11 28 7 47 -5 7
-4 8 -3 4 4 -4 7 -2 12 3 12 6 0 11 -4 11 -10 0 -5 5 -10 11 -10 5 0 7 6 3 13
-4 6 3 3 15 -7 22 -20 22 -20 15 0 -7 17 -6 18 11 4 11 -9 16 -10 11 -2 -4 6
-3 12 3 12 5 0 11 -6 14 -12 3 -10 7 -10 20 1 13 10 17 10 17 1 0 -9 4 -9 17
1 13 11 17 11 20 2 3 -7 9 -13 14 -13 6 0 7 6 3 13 -4 6 3 3 15 -7 22 -20 22
-20 15 0 -7 17 -6 18 11 4 11 -9 16 -10 11 -2 -4 6 -3 12 3 12 5 0 11 -6 14
-12 3 -10 7 -10 20 1 11 9 17 10 17 2 0 -6 5 -11 11 -11 5 0 7 6 3 13 -6 10
-4 10 7 0 7 -7 17 -13 22 -13 4 0 5 6 1 13 -5 7 0 6 11 -3 11 -9 16 -10 11 -2
-11 18 5 15 21 -5 8 -10 12 -12 8 -5 -4 7 0 12 10 12 10 0 13 -5 9 -12 -4 -7
3 -4 16 7 16 14 24 16 27 8 3 -7 16 -13 29 -13 27 0 30 -9 12 -29 -11 -11 -9
-11 9 -2 12 6 25 11 28 11 10 0 -18 -26 -35 -33 -13 -5 -13 -6 0 -6 9 -1 21 4
28 9 6 6 10 7 7 4 -3 -4 1 -14 8 -23 11 -14 10 -14 -5 -2 -15 11 -19 11 -24
-2 -3 -9 0 -25 6 -37 6 -12 13 -34 15 -48 2 -15 2 -21 -1 -14 -3 6 -11 9 -17
5 -7 -4 -7 0 1 10 12 14 11 16 -6 14 -25 -1 -18 -22 17 -55 14 -14 18 -19 8
-12 -15 11 -17 10 -14 -8 2 -12 6 -24 10 -28 11 -12 -3 -23 -21 -18 -14 5 -15
4 -2 -5 12 -8 12 -13 2 -23 -15 -15 -16 -28 -1 -28 5 0 7 6 3 13 -5 8 -2 8 9
-2 9 -7 17 -19 16 -25 0 -7 -2 -6 -6 2 -2 6 -9 10 -14 6 -5 -3 -5 -13 2 -25
16 -30 20 -61 7 -53 -7 5 -9 0 -6 -14 5 -16 2 -22 -10 -22 -14 0 -15 -2 -2 -9
8 -6 18 -7 23 -4 5 3 4 -3 -1 -14 -9 -15 -8 -20 3 -20 8 0 12 4 9 9 -3 4 0 8
5 8 6 0 11 -7 11 -15 0 -18 16 -20 26 -3 5 7 3 8 -6 3 -9 -6 -11 -4 -5 5 6 10
11 10 20 -3 15 -21 29 -22 22 -3 -4 10 -1 13 8 9 8 -3 12 -9 9 -14 -3 -5 2 -6
10 -3 9 3 14 9 12 13 -3 4 4 7 14 7 10 0 17 -3 14 -7 -5 -9 25 -33 33 -25 3 3
1 6 -5 6 -7 0 -12 4 -12 10 0 12 22 9 32 -5 5 -6 8 -5 8 3 0 6 5 12 11 12 5 0
7 -4 4 -10 -11 -17 7 -11 21 8 13 16 14 16 8 0 -3 -10 -1 -18 5 -18 6 0 11 7
11 15 0 8 4 15 10 15 5 0 7 -8 3 -17 -6 -16 -4 -16 15 1 12 11 25 16 29 13 3
-4 1 -7 -6 -7 -7 0 -9 -5 -6 -10 5 -8 11 -7 21 1 8 7 14 7 14 1 0 -5 7 -12 15
-16 12 -4 13 -2 6 12 -7 14 -6 18 9 18 10 0 16 -6 13 -13 -3 -7 0 -13 6 -13 6
0 11 4 11 9 0 5 7 12 16 15 20 8 47 -12 37 -27 -4 -6 -1 -7 6 -3 7 5 10 15 7
23 -3 8 -1 11 4 8 6 -3 10 -13 10 -21 0 -8 4 -13 8 -10 5 3 9 -1 9 -9 0 -8 -4
-12 -9 -9 -4 3 -8 0 -8 -5 0 -6 6 -11 13 -12 8 0 8 -2 -2 -6 -11 -5 -11 -7 0
-14 12 -8 11 -11 -1 -19 -13 -9 -13 -10 0 -10 12 -1 12 -3 -3 -14 -16 -13 -16
-14 -1 -20 9 -4 14 -9 11 -13 -4 -3 -2 -12 5 -20 8 -10 8 -12 -4 -8 -10 4 -14
-2 -14 -19 0 -14 4 -22 8 -20 4 3 8 0 8 -5 0 -6 -5 -11 -11 -11 -6 0 -9 -6 -6
-12 2 -7 10 -12 17 -10 11 3 11 0 1 -12 -7 -9 -18 -13 -24 -9 -6 3 -7 1 -3 -6
4 -6 13 -8 19 -4 8 4 7 1 -1 -9 -9 -11 -10 -18 -2 -23 5 -3 10 -11 10 -16 0
-6 -4 -8 -8 -5 -5 3 -9 -1 -9 -9 0 -8 4 -12 9 -9 4 3 8 0 8 -5 0 -6 -6 -11
-12 -11 -10 0 -9 -3 1 -9 9 -6 10 -11 2 -15 -6 -4 -9 -12 -5 -17 3 -5 11 -6
17 -2 7 4 6 0 -2 -10 -7 -9 -18 -14 -24 -10 -6 3 -7 1 -3 -6 4 -6 13 -8 19 -4
8 4 7 1 -1 -9 -9 -11 -10 -18 -2 -23 5 -3 10 -11 10 -16 0 -6 -4 -8 -8 -5 -5
3 -9 -1 -9 -9 0 -8 4 -12 9 -9 4 3 8 0 8 -5 0 -6 -6 -11 -12 -11 -9 0 -8 -4 2
-10 8 -5 11 -10 6 -10 -5 0 -3 -7 4 -15 11 -13 10 -14 -2 -10 -10 4 -14 -2
-14 -19 0 -14 4 -22 8 -20 4 3 8 1 8 -5 0 -5 -6 -12 -12 -14 -10 -4 -10 -8 1
-15 16 -11 5 -36 -11 -26 -7 4 -8 2 -4 -5 4 -6 12 -9 17 -6 5 4 9 1 9 -4 0 -6
-6 -11 -12 -11 -9 0 -9 -3 1 -9 12 -7 12 -13 3 -24 -7 -7 -9 -17 -5 -20 3 -4
0 -7 -7 -7 -9 0 -7 -5 6 -15 10 -8 15 -15 10 -15 -5 0 -3 -7 4 -15 11 -13 10
-14 -2 -10 -10 4 -14 -2 -14 -19 0 -14 4 -22 8 -20 4 3 8 0 8 -5 0 -6 -5 -11
-11 -11 -6 0 -9 -6 -6 -12 2 -7 10 -12 17 -10 11 3 11 0 1 -12 -7 -9 -18 -13
-24 -9 -6 3 -7 1 -3 -6 4 -6 13 -8 19 -4 8 4 7 1 -1 -9 -9 -11 -10 -18 -2 -23
5 -3 10 -11 10 -16 0 -6 -4 -8 -8 -5 -5 3 -9 -1 -9 -9 0 -8 4 -12 9 -9 4 3 8
0 8 -5 0 -6 -6 -11 -12 -11 -10 0 -9 -3 1 -9 9 -6 10 -11 2 -15 -6 -4 -9 -12
-5 -17 3 -5 11 -6 17 -2 7 4 6 0 -2 -10 -7 -9 -18 -14 -24 -10 -6 3 -7 1 -3
-6 4 -6 13 -8 19 -4 8 4 7 1 -1 -9 -9 -11 -10 -18 -2 -23 5 -3 10 -11 10 -16
0 -6 -4 -8 -8 -5 -5 3 -9 -1 -9 -9 0 -8 4 -12 9 -9 4 3 8 0 8 -5 0 -6 -6 -11
-12 -11 -9 0 -8 -4 2 -10 8 -5 11 -10 6 -10 -5 0 -3 -7 4 -15 11 -13 10 -14
-2 -10 -10 4 -14 -2 -14 -19 0 -14 4 -22 8 -20 4 3 8 1 8 -5 0 -5 -5 -11 -11
-13 -5 -2 -7 -11 -4 -21 4 -9 12 -14 18 -10 6 4 7 1 3 -6 -5 -7 -15 -10 -23
-6 -13 4 -14 3 -4 -9 9 -11 9 -16 0 -22 -8 -4 -9 -3 -5 4 9 16 -7 15 -22 0 -9
-9 -12 -9 -12 0 0 7 -5 12 -11 12 -5 0 -7 -5 -3 -11 4 -7 -1 -7 -16 1 -15 8
-20 8 -16 1 11 -18 -6 -13 -19 6 -9 13 -14 13 -20 3 -6 -9 -4 -11 6 -5 12 7
12 6 0 -6 -11 -11 -14 -11 -18 -1 -4 10 -8 10 -21 0 -12 -10 -16 -10 -19 0 -3
6 -10 9 -16 5 -18 -11 -38 -12 -31 -2 8 13 -10 11 -24 -3 -7 -7 -12 -8 -12 -2
0 6 -7 11 -15 11 -10 0 -14 -6 -10 -16 3 -11 0 -10 -10 3 -11 15 -15 16 -16 5
0 -10 -2 -11 -6 -1 -4 10 -8 10 -21 0 -12 -10 -14 -10 -8 -1 9 16 -6 17 -22 1
-8 -8 -12 -8 -12 -1 0 16 -28 24 -36 11 -4 -6 -3 -8 4 -4 6 3 14 1 18 -6 4 -7
4 -10 -1 -6 -4 4 -14 3 -22 -4 -8 -6 -13 -7 -12 -2 4 21 -2 26 -16 14 -8 -7
-15 -8 -15 -3 0 5 -7 10 -15 10 -10 0 -14 -6 -10 -16 3 -11 0 -10 -10 3 -11
15 -15 16 -16 5 0 -10 -2 -11 -6 -1 -4 10 -8 10 -21 0 -14 -11 -15 -10 -8 6 7
19 6 19 -14 1 -11 -10 -20 -14 -20 -8 0 5 -7 10 -15 10 -10 0 -14 -6 -10 -16
3 -11 0 -10 -10 3 -11 15 -15 16 -16 5 0 -10 -2 -11 -6 -1 -4 10 -8 10 -21 0
-12 -10 -14 -10 -8 0 4 6 3 12 -3 12 -5 0 -13 -5 -16 -11 -5 -6 -12 -4 -21 8
-10 13 -14 14 -12 3 3 -12 -23 -14 -157 -15 -88 -1 -164 2 -170 5 -5 4 -19 10
-30 13 -19 7 -19 6 -2 -7 17 -13 16 -14 -7 -12 -15 0 -26 5 -26 10 0 5 -7 3
-15 -4 -8 -7 -15 -8 -15 -3 0 5 -7 10 -15 10 -10 0 -14 -6 -10 -16 3 -11 0
-10 -10 3 -11 15 -15 16 -16 5 0 -10 -2 -11 -6 -1 -4 10 -8 10 -21 0 -12 -10
-14 -10 -8 -1 9 16 -6 17 -22 1 -7 -7 -12 -8 -12 -2 0 6 -7 11 -15 11 -10 0
-14 -6 -10 -16 4 -13 2 -12 -9 2 -13 17 -32 25 -22 9 2 -4 -4 -8 -15 -8 -10 0
-19 4 -19 9 0 5 -6 4 -14 -2 -10 -9 -17 -7 -27 6 -11 13 -11 17 -2 20 7 3 13
9 13 14 0 6 -5 7 -10 4 -14 -9 -12 8 3 24 10 11 10 13 0 7 -7 -4 -13 -2 -13 3
0 6 6 11 13 12 8 0 8 2 -2 6 -11 5 -11 7 0 14 11 7 11 9 1 9 -10 0 -10 5 -2
21 9 15 8 24 -1 35 -9 11 -9 14 2 15 10 0 11 2 2 6 -7 2 -13 9 -13 14 0 6 4 8
8 5 4 -2 8 6 8 19 0 13 -4 21 -8 19 -4 -3 -8 0 -8 5 0 6 6 11 13 12 9 0 9 2
-1 6 -10 4 -10 8 -1 19 8 10 8 14 0 14 -6 0 -11 5 -11 11 0 5 6 7 13 4 6 -3 4
0 -5 7 -15 11 -15 13 0 26 11 9 12 11 2 6 -13 -7 -13 -5 -1 9 11 14 11 17 0
17 -11 0 -11 2 1 10 11 7 11 10 2 10 -8 0 -10 5 -5 13 11 17 12 68 2 61 -13
-8 -11 10 4 25 9 11 9 13 0 7 -7 -4 -13 -3 -13 3 0 5 6 12 13 15 10 5 10 7 0
12 -7 3 -13 10 -13 15 0 6 6 7 13 4 6 -3 4 0 -5 7 -15 11 -15 13 0 26 11 9 12
11 2 6 -13 -7 -13 -5 -1 9 11 14 11 17 0 17 -11 0 -11 2 1 10 11 7 11 10 2 10
-8 0 -10 5 -5 13 11 17 12 68 2 61 -13 -8 -11 10 4 25 10 11 10 13 0 7 -7 -4
-13 -3 -13 3 0 5 6 12 13 15 10 5 10 7 0 12 -7 3 -13 10 -13 15 0 6 6 7 13 4
6 -3 4 0 -5 7 -15 11 -15 13 0 26 11 9 12 11 2 6 -13 -7 -13 -5 -1 9 11 14 11
17 0 17 -11 0 -11 2 1 10 11 7 11 10 2 10 -8 0 -10 5 -5 13 11 17 12 68 2 61
-13 -8 -11 10 4 25 10 11 10 13 0 7 -7 -4 -13 -3 -13 3 0 5 6 12 13 15 10 5
10 7 0 12 -7 3 -13 10 -13 15 0 6 6 7 13 4 6 -3 4 0 -5 7 -15 11 -15 13 0 26
11 9 12 11 2 6 -13 -7 -13 -5 -1 9 11 14 11 17 0 17 -11 0 -11 2 1 10 11 7 11
10 2 10 -8 0 -10 5 -5 13 11 17 12 68 2 61 -13 -8 -11 10 4 25 9 11 9 13 0 7
-7 -4 -13 -3 -13 3 0 5 6 12 13 15 10 5 10 7 0 12 -7 3 -13 10 -13 15 0 6 6 7
13 4 6 -3 4 0 -5 7 -15 11 -15 13 0 26 11 9 12 11 2 6 -13 -7 -13 -5 -1 9 11
14 11 17 0 17 -11 0 -11 2 1 10 11 7 11 10 2 10 -8 0 -10 5 -5 13 11 17 12 68
2 61 -13 -8 -11 10 4 25 10 11 10 13 0 7 -7 -4 -13 -3 -13 3 0 5 6 12 13 15
10 5 10 7 0 12 -7 3 -13 10 -13 15 0 6 6 7 13 4 6 -4 4 0 -6 8 -12 10 -14 16
-6 19 15 5 21 56 7 64 -6 4 -5 10 3 15 10 6 11 9 2 9 -7 0 -13 5 -13 11 0 5 4
8 8 5 4 -2 8 6 8 19 0 13 -4 21 -8 19 -4 -3 -8 0 -8 5 0 6 6 11 13 12 9 0 9 2
0 6 -10 3 -10 10 -2 25 8 15 8 19 0 14 -6 -4 -11 -2 -11 3 0 6 6 11 13 12 8 0
8 2 -2 6 -11 5 -11 7 0 14 12 7 12 9 0 9 -11 0 -11 3 -1 15 10 12 10 15 0 15
-8 0 -10 3 -7 6 4 4 14 1 22 -6 9 -7 15 -9 14 -4 -3 18 1 25 11 19 6 -4 7 -11
4 -17z m1306 -208 c0 -5 -2 -10 -4 -10 -3 0 -8 5 -11 10 -3 6 -1 10 4 10 6 0
11 -4 11 -10z m143 -135 c15 -19 24 -35 18 -35 -5 0 -12 7 -15 16 -3 8 -11 12
-17 8 -7 -4 -9 -3 -5 4 3 6 -1 18 -10 26 -8 9 -12 16 -7 16 4 0 21 -16 36 -35z"/>
<path d="M1467 2089 c7 -7 15 -10 18 -7 3 3 -2 9 -12 12 -14 6 -15 5 -6 -5z"/>
<path d="M1460 2014 c0 -13 18 -39 24 -34 2 3 -2 14 -10 24 -8 11 -14 16 -14
10z"/>
<path d="M1470 1966 c0 -2 7 -7 16 -10 8 -3 12 -2 9 4 -6 10 -25 14 -25 6z"/>
<path d="M1467 1849 c7 -7 15 -10 18 -7 3 3 -2 9 -12 12 -14 6 -15 5 -6 -5z"/>
<path d="M1464 1808 c0 -23 8 -23 23 1 11 17 10 20 -5 18 -10 0 -18 -9 -18
-19z"/>
<path d="M1935 1720 c3 -5 8 -10 11 -10 2 0 4 5 4 10 0 6 -5 10 -11 10 -5 0
-7 -4 -4 -10z"/>
<path d="M1630 1710 c-9 -6 -10 -10 -3 -10 6 0 15 5 18 10 8 12 4 12 -15 0z"/>
<path d="M1796 1703 c-6 -14 -5 -15 5 -6 7 7 10 15 7 18 -3 3 -9 -2 -12 -12z"/>
<path d="M917 1302 c6 -15 5 -15 -10 -3 -15 12 -21 9 -18 -11 0 -5 -5 -8 -13
-8 -8 0 -18 -5 -22 -12 -4 -7 -3 -8 4 -4 16 10 15 -7 0 -23 -11 -11 -10 -12 1
-6 10 6 13 4 9 -6 -13 -35 -19 -63 -10 -51 7 11 10 9 15 -7 3 -12 2 -19 -2
-16 -4 2 -8 -1 -8 -8 0 -7 8 -13 18 -13 10 0 15 4 13 8 -3 4 2 5 10 2 9 -3 13
-11 9 -18 -4 -8 -2 -8 7 1 7 6 19 9 28 6 11 -5 13 -3 7 8 -7 11 -6 12 6 2 12
-10 18 -10 29 0 8 8 11 8 7 1 -4 -7 0 -15 9 -18 8 -3 12 -2 9 3 -3 5 -1 12 5
16 5 3 10 1 10 -6 0 -10 3 -10 12 -1 18 18 32 14 17 -5 -13 -15 -12 -15 9 -4
12 6 22 9 22 5 0 -3 8 0 17 7 11 10 14 10 9 2 -4 -7 -3 -13 1 -13 5 0 15 6 22
13 11 10 13 9 8 -4 -3 -9 0 -16 8 -16 8 0 14 3 13 6 -2 19 4 21 18 6 15 -15
18 -15 37 2 11 10 17 13 14 7 -4 -7 0 -15 9 -18 8 -3 12 -2 9 3 -3 5 -1 12 5
16 5 3 10 1 10 -6 0 -8 5 -7 17 2 11 10 14 10 9 2 -8 -14 6 -18 18 -6 15 15
38 12 31 -5 -5 -13 -1 -12 16 4 12 10 19 13 15 7 -8 -14 6 -18 18 -6 14 15 38
12 32 -4 -5 -13 -4 -14 9 -3 8 7 15 9 15 5 0 -4 8 -1 17 6 9 8 14 9 10 3 -4
-7 0 -15 9 -18 8 -3 12 -2 9 3 -3 5 -1 12 5 16 5 3 10 1 10 -6 0 -10 3 -10 12
-1 18 18 32 14 17 -5 -13 -15 -12 -15 9 -4 12 6 22 9 22 5 0 -3 8 0 17 7 11
10 14 10 9 2 -4 -7 -3 -13 1 -13 5 0 15 6 22 13 11 10 13 9 8 -4 -3 -9 0 -16
8 -16 8 0 14 3 13 6 -2 19 4 24 13 11 8 -12 12 -12 16 -2 4 10 9 9 20 -5 8
-10 12 -13 9 -6 -4 6 -2 14 4 18 5 3 10 0 10 -7 0 -7 7 0 15 16 19 36 19 42
-2 25 -15 -13 -15 -12 -5 7 8 16 8 24 -1 34 -9 10 -9 11 1 6 6 -4 12 -3 12 1
0 5 -6 15 -12 22 -7 7 -8 12 -3 11 21 -4 26 0 13 13 -47 43 -56 48 -64 36 -4
-8 -3 -10 4 -5 7 4 12 2 12 -3 0 -14 -33 -9 -53 7 -12 10 -17 10 -23 1 -4 -8
-3 -9 4 -5 8 5 10 1 5 -9 -4 -13 -8 -14 -14 -4 -4 7 -20 14 -36 16 -22 3 -25
1 -13 -7 12 -8 11 -9 -7 -7 -11 2 -28 9 -36 15 -12 10 -17 10 -23 1 -4 -8 -3
-9 4 -5 8 5 10 1 5 -9 -4 -13 -8 -14 -14 -4 -4 7 -20 14 -36 16 -22 3 -25 1
-13 -7 12 -8 11 -9 -7 -7 -11 2 -28 9 -36 15 -12 10 -17 10 -23 1 -4 -8 -3 -9
4 -5 8 5 10 1 5 -10 -5 -15 -7 -15 -15 0 -5 9 -14 13 -21 9 -17 -10 -47 -11
-47 -1 0 5 -6 6 -12 1 -19 -11 -39 -13 -32 -2 8 13 -10 11 -25 -3 -12 -11 -13
-10 -7 6 6 16 4 17 -10 5 -19 -15 -47 -21 -38 -8 8 13 -10 11 -25 -3 -12 -11
-13 -10 -7 6 6 16 4 17 -10 5 -19 -15 -47 -21 -38 -8 8 13 -10 11 -25 -3 -12
-11 -13 -10 -7 6 6 16 4 17 -10 5 -19 -15 -47 -21 -38 -8 8 13 -10 11 -25 -3
-12 -11 -13 -10 -7 6 6 16 4 17 -10 5 -18 -15 -47 -22 -39 -9 3 4 -2 10 -10
13 -10 4 -12 1 -8 -11z"/>
<path d="M907 852 c4 -10 9 -10 22 0 9 7 17 13 19 14 2 1 -8 1 -21 0 -15 0
-23 -6 -20 -14z"/>
<path d="M973 859 c-6 -6 -18 -11 -26 -13 -9 -1 -25 -10 -37 -21 -11 -10 -20
-13 -20 -7 0 6 5 12 11 14 7 2 6 8 -3 15 -11 10 -14 8 -16 -5 -2 -18 -9 -53
-12 -62 -1 -3 -2 -9 -1 -14 1 -4 -4 -15 -11 -24 -10 -12 -10 -14 0 -8 7 4 12
1 12 -9 0 -10 -5 -13 -12 -9 -7 4 -8 3 -4 -5 6 -9 11 -9 22 0 12 10 13 9 8 -5
-4 -11 -2 -16 6 -14 7 2 15 -4 17 -12 4 -13 3 -13 -6 0 -10 13 -11 13 -11 0 0
-13 -1 -13 -10 0 -5 8 -11 12 -14 10 -2 -3 2 -14 10 -24 8 -12 14 -15 14 -7 0
11 3 11 15 1 9 -7 18 -10 22 -6 3 3 1 6 -5 6 -6 0 -9 7 -6 15 5 11 9 12 19 2
7 -7 10 -16 7 -22 -2 -5 1 -5 8 2 7 6 19 9 26 6 8 -3 14 0 14 7 0 6 -4 9 -8 6
-5 -3 -9 1 -9 9 0 9 5 11 16 6 9 -5 23 -6 31 -4 8 3 6 -1 -5 -10 -11 -8 -17
-19 -12 -23 4 -4 7 -2 7 4 0 7 7 12 16 12 8 0 12 -5 9 -11 -4 -6 2 -5 13 2 12
7 18 19 14 28 -6 17 -4 16 18 -13 8 -11 10 -17 3 -13 -6 4 -14 3 -17 -2 -7
-11 13 -9 32 2 12 8 16 2 12 -18 -1 -5 7 -2 18 8 21 19 37 23 27 6 -4 -6 2 -5
13 2 12 7 18 19 14 28 -6 17 -4 16 18 -13 8 -11 10 -17 3 -13 -6 4 -14 3 -17
-2 -7 -10 13 -9 31 2 6 4 13 1 16 -5 4 -10 7 -11 18 0 17 16 63 16 53 0 -4 -7
-3 -8 5 -4 7 5 9 13 4 20 -4 7 1 3 11 -9 15 -15 18 -16 13 -3 -10 29 22 30 50
0 14 -15 20 -19 13 -9 -11 15 -9 17 9 17 15 0 20 -4 15 -12 -6 -10 -4 -10 7 0
17 15 43 16 33 0 -4 -7 -3 -8 5 -4 7 5 9 13 4 20 -4 7 1 3 11 -9 15 -15 18
-16 13 -3 -10 29 22 30 50 0 14 -15 20 -19 13 -9 -11 15 -9 17 9 17 14 0 20
-4 15 -11 -5 -8 -1 -8 13 0 14 7 24 7 33 -2 9 -8 11 -8 7 -1 -4 7 0 14 7 17
11 4 13 0 11 -15 -4 -19 -3 -20 14 -4 15 14 20 14 24 4 4 -11 6 -11 6 0 1 7 5
11 10 7 5 -3 12 -1 15 4 4 5 1 13 -5 17 -7 4 -9 3 -6 -2 3 -6 -5 -10 -19 -10
-13 0 -24 4 -24 9 0 5 7 7 15 3 9 -3 20 3 27 14 7 11 17 20 22 20 4 0 3 -7 -4
-15 -7 -9 -8 -15 -2 -15 14 0 23 28 11 35 -6 4 -6 13 0 23 6 11 4 20 -7 30
-15 12 -15 13 3 8 20 -6 20 -6 1 9 -11 8 -14 15 -7 15 7 0 9 5 6 10 -5 8 -12
7 -23 -2 -15 -12 -16 -11 -4 4 10 12 11 22 3 35 -6 10 -11 13 -11 8 0 -6 -9
-11 -20 -12 -13 -1 -18 2 -14 9 5 7 2 8 -5 4 -7 -5 -10 -15 -7 -23 4 -9 1 -13
-6 -11 -7 3 -13 11 -13 18 0 17 -21 24 -30 11 -3 -7 0 -8 9 -5 28 11 17 -4
-14 -19 -28 -15 -29 -15 -20 4 6 11 7 19 1 19 -5 0 -11 -6 -14 -13 -3 -9 -21
-14 -46 -14 -31 0 -42 5 -47 19 -7 23 -24 14 -25 -15 -1 -18 -2 -19 -6 -4 -4
17 -6 17 -17 2 -10 -15 -12 -14 -12 4 0 12 5 21 10 21 5 0 7 2 4 5 -8 8 -38
-6 -38 -17 0 -5 6 -6 13 -2 9 5 9 3 -1 -7 -11 -12 -14 -12 -22 1 -5 8 -6 18
-3 23 3 5 -4 3 -15 -4 -12 -7 -19 -16 -16 -20 2 -4 -1 -11 -7 -15 -7 -4 -9 -3
-6 3 4 6 -5 19 -19 28 -15 9 -23 12 -20 6 4 -6 0 -11 -9 -11 -9 0 -14 -4 -10
-9 3 -5 0 -13 -6 -17 -7 -4 -9 -3 -6 3 4 5 -6 10 -23 10 -26 0 -28 -3 -17 -16
10 -14 10 -14 -5 -3 -9 8 -23 10 -29 6 -7 -4 -9 -3 -6 3 4 5 -6 10 -23 10 -23
0 -27 -3 -19 -13 8 -10 6 -10 -15 -1 -22 11 -23 13 -6 19 23 9 33 25 15 25 -8
0 -12 -4 -9 -9 3 -4 -2 -8 -11 -8 -10 0 -13 5 -9 12 4 7 3 8 -4 4 -7 -4 -12
-14 -12 -22 0 -8 -5 -14 -11 -14 -6 0 -9 7 -6 15 8 20 -11 29 -28 15 -12 -10
-15 -10 -15 1 0 9 -3 10 -8 4 -10 -14 -46 -19 -37 -6 8 14 2 14 -12 0z m91
-14 c-6 -16 -24 -21 -24 -7 0 11 11 22 21 22 5 0 6 -7 3 -15z m-60 -6 c-2 -4
-15 -6 -30 -6 -14 0 -21 2 -15 6 5 4 19 7 30 7 11 0 18 -3 15 -7z m17 -12
c-10 -9 -11 -8 -5 6 3 10 9 15 12 12 3 -3 0 -11 -7 -18z m293 14 c3 -5 -1 -14
-8 -20 -12 -10 -14 -9 -11 6 2 10 4 19 4 21 2 5 10 2 15 -7z m385 -8 c-6 -7
-15 -10 -20 -7 -13 8 -3 21 15 21 12 0 13 -4 5 -14z m-69 -13 c0 -5 -2 -10 -4
-10 -3 0 -8 5 -11 10 -3 6 -1 10 4 10 6 0 11 -4 11 -10z m-295 -128 c-3 -3
-11 0 -18 7 -9 10 -8 11 6 5 10 -3 15 -9 12 -12z m80 0 c-3 -3 -11 0 -18 7 -9
10 -8 11 6 5 10 -3 15 -9 12 -12z m80 0 c-3 -3 -11 0 -18 7 -9 10 -8 11 6 5
10 -3 15 -9 12 -12z m80 0 c-3 -3 -11 0 -18 7 -9 10 -8 11 6 5 10 -3 15 -9 12
-12z m80 0 c-3 -3 -11 0 -18 7 -9 10 -8 11 6 5 10 -3 15 -9 12 -12z m-698 -7
c0 -8 -4 -12 -9 -9 -5 3 -6 10 -3 15 9 13 12 11 12 -6z m157 -1 c9 -8 16 -11
16 -5 0 6 5 11 11 11 8 0 8 -5 -1 -15 -9 -11 -16 -12 -25 -5 -6 5 -14 8 -17 5
-2 -3 -5 2 -5 10 0 19 2 19 21 -1z m120 0 c9 -8 16 -11 16 -5 0 6 5 11 11 11
8 0 8 -5 -1 -15 -9 -11 -16 -12 -25 -5 -6 5 -14 8 -17 5 -2 -3 -5 2 -5 10 0
19 2 19 21 -1z m216 2 c0 -3 -4 -8 -10 -11 -5 -3 -10 -1 -10 4 0 6 5 11 10 11
6 0 10 -2 10 -4z m160 -6 c0 -5 -4 -10 -10 -10 -5 0 -10 5 -10 10 0 6 5 10 10
10 6 0 10 -4 10 -10z"/>
<path d="M1166 859 c2 -4 -2 -10 -8 -12 -8 -4 -9 -6 -2 -6 6 -1 17 5 23 12 8
10 7 14 -4 14 -8 0 -12 -4 -9 -8z"/>
<path d="M1206 859 c2 -4 -2 -10 -8 -12 -8 -4 -9 -6 -2 -6 6 -1 17 5 23 12 8
10 7 14 -4 14 -8 0 -12 -4 -9 -8z"/>
<path d="M1246 859 c2 -4 -2 -10 -8 -12 -8 -4 -9 -6 -2 -6 6 -1 17 5 23 12 8
10 7 14 -4 14 -8 0 -12 -4 -9 -8z"/>
<path d="M1498 858 c-5 -11 -2 -15 10 -14 9 2 18 9 20 17 3 12 2 12 -6 0 -8
-11 -10 -11 -14 0 -3 10 -6 9 -10 -3z"/>
<path d="M1546 853 c-6 -14 -5 -15 5 -6 7 7 10 15 7 18 -3 3 -9 -2 -12 -12z"/>
<path d="M855 820 c-3 -5 -1 -10 4 -10 6 0 11 5 11 10 0 6 -2 10 -4 10 -3 0
-8 -4 -11 -10z"/>
<path d="M1353 661 c0 -11 5 -18 9 -15 4 3 5 11 1 19 -7 21 -12 19 -10 -4z"/>
<path d="M1513 661 c0 -11 5 -18 9 -15 4 3 5 11 1 19 -7 21 -12 19 -10 -4z"/>
<path d="M1000 390 c-9 -6 -10 -10 -3 -10 6 0 15 5 18 10 8 12 4 12 -15 0z"/>
<path d="M1080 390 c-9 -6 -10 -10 -3 -10 6 0 15 5 18 10 8 12 4 12 -15 0z"/>
<path d="M1160 390 c-9 -6 -10 -10 -3 -10 6 0 15 5 18 10 8 12 4 12 -15 0z"/>
<path d="M1240 390 c-9 -6 -10 -10 -3 -10 6 0 15 5 18 10 8 12 4 12 -15 0z"/>
<path d="M495 2360 c-3 -5 -1 -10 4 -10 6 0 11 5 11 10 0 6 -2 10 -4 10 -3 0
-8 -4 -11 -10z"/>
<path d="M1606 2361 c-3 -5 1 -14 9 -21 10 -9 15 -9 15 -1 0 6 -5 11 -11 11
-5 0 -7 5 -4 10 3 6 4 10 1 10 -3 0 -7 -4 -10 -9z"/>
<path d="M430 326 c0 -2 7 -9 15 -16 13 -11 14 -10 9 4 -5 14 -24 23 -24 12z"/>
<path d="M2153 305 c0 -8 4 -15 9 -15 4 0 8 4 8 9 0 6 -4 12 -8 15 -5 3 -9 -1
-9 -9z"/>
<path d="M494 249 c-4 -7 -3 -9 4 -5 5 3 13 0 15 -6 4 -9 6 -10 6 -1 1 17 -16
25 -25 12z"/>
<path d="M550 220 c0 -5 5 -10 11 -10 5 0 7 5 4 10 -3 6 -8 10 -11 10 -2 0 -4
-4 -4 -10z"/>
<path d="M955 210 c-3 -5 -1 -10 4 -10 6 0 11 5 11 10 0 6 -2 10 -4 10 -3 0
-8 -4 -11 -10z"/>
</g>
</svg>
